# Rhino

g object_1
v -1.456020951271057 -4.250007152557373 0
v -1.456020951271057 -4.250007152557373 8.323244094848633
v 12.00233554840088 -4.250007152557373 0
v 12.00233554840088 -4.250007152557373 8.323244094848633
v 12.00233554840088 -4.250007152557373 0
v 12.00233554840088 -4.250007152557373 8.323244094848633
v 12.00233554840088 6.532418727874756 0
v 12.00233554840088 6.532418727874756 8.323244094848633
v 12.00233554840088 6.532418727874756 0
v 12.00233554840088 6.532418727874756 8.323244094848633
v -1.456020951271057 6.532418727874756 0
v -1.456020951271057 6.532418727874756 8.323244094848633
v -1.456020951271057 6.532418727874756 0
v -1.456020951271057 6.532418727874756 8.323244094848633
v -1.456020951271057 -4.250007152557373 0
v -1.456020951271057 -4.250007152557373 8.323244094848633
v -1.456020951271057 -4.250007152557373 0
v 12.00233554840088 -4.250007152557373 0
v 12.00233554840088 6.532418727874756 0
v -1.456020951271057 6.532418727874756 0
v -1.456020951271057 -4.250007152557373 8.323244094848633
v 12.00233554840088 -4.250007152557373 8.323244094848633
v 12.00233554840088 6.532418727874756 8.323244094848633
v -1.456020951271057 6.532418727874756 8.323244094848633
vt 0 0
vt 0 0.6392397284507752
vt 0.2775973975658417 0
vt 0.2775973975658417 0.6392397284507752
vt 0.2775973975658417 0
vt 0.2775973975658417 0.6392397284507752
vt 0.5 0
vt 0.5 0.6392397284507752
vt 0.5 0
vt 0.5 0.6392397284507752
vt 0.7775974273681641 0
vt 0.7775974273681641 0.6392397284507752
vt 0.7775974273681641 0
vt 0.7775974273681641 0.6392397284507752
vt 1 0
vt 1 0.6392397284507752
vt 0 1
vt 0.2775973975658417 1
vt 0.2775973975658417 0.6392403244972229
vt 0 0.6392403244972229
vt 0.7224025726318359 0.6392403244972229
vt 1 0.6392403244972229
vt 1 1
vt 0.7224025726318359 1
vn 0 -1 0
vn 0 -1 0
vn 0 -1 0
vn 0 -1 0
vn 1 0 0
vn 1 0 0
vn 1 0 0
vn 1 0 0
vn 0 1 0
vn 0 1 0
vn 0 1 0
vn 0 1 0
vn -1 0 0
vn -1 0 0
vn -1 0 0
vn -1 0 0
vn 0 0 -1
vn 0 0 -1
vn 0 0 -1
vn 0 0 -1
vn 0 0 1
vn 0 0 1
vn 0 0 1
vn 0 0 1
f 1/1/1 3/3/3 4/4/4 2/2/2
f 5/5/5 7/7/7 8/8/8 6/6/6
f 9/9/9 11/11/11 12/12/12 10/10/10
f 13/13/13 15/15/15 16/16/16 14/14/14
f 18/18/18 17/17/17 20/20/20
f 20/20/20 19/19/19 18/18/18
f 22/22/22 24/24/24 21/21/21
f 24/24/24 22/22/22 23/23/23
